<svg width="16" height="16" viewBox="0 0 16 16" fill="none" xmlns="http://www.w3.org/2000/svg">
<path fill-rule="evenodd" clip-rule="evenodd" d="M7.99982 9.41391L13.6568 15.0709C13.8454 15.2531 14.098 15.3539 14.3602 15.3516C14.6224 15.3493 14.8732 15.2441 15.0586 15.0587C15.2441 14.8733 15.3492 14.6225 15.3515 14.3603C15.3538 14.0981 15.253 13.8455 15.0708 13.6569L9.41382 7.99991L15.0708 2.34291C15.253 2.1543 15.3538 1.9017 15.3515 1.6395C15.3492 1.37731 15.2441 1.1265 15.0586 0.941087C14.8732 0.755679 14.6224 0.65051 14.3602 0.648231C14.098 0.645953 13.8454 0.746747 13.6568 0.928905L7.99982 6.58591L2.34282 0.928905C2.15337 0.75125 1.90224 0.654271 1.64255 0.658487C1.38287 0.662704 1.13502 0.767787 0.951433 0.951499C0.76785 1.13521 0.662943 1.38314 0.65891 1.64283C0.654877 1.90251 0.752034 2.15358 0.929823 2.34291L6.58582 7.99991L0.928823 13.6569C0.833313 13.7492 0.757131 13.8595 0.704722 13.9815C0.652313 14.1035 0.624727 14.2347 0.623573 14.3675C0.622419 14.5003 0.647721 14.632 0.698001 14.7549C0.748282 14.8778 0.822535 14.9894 0.916428 15.0833C1.01032 15.1772 1.12197 15.2514 1.24487 15.3017C1.36777 15.352 1.49944 15.3773 1.63222 15.3762C1.765 15.375 1.89622 15.3474 2.01823 15.295C2.14023 15.2426 2.25058 15.1664 2.34282 15.0709L7.99982 9.41391Z" fill="black"/>
</svg>
