<svg width="188" height="204" viewBox="0 0 188 204" fill="none" xmlns="http://www.w3.org/2000/svg">
<path d="M182 32H140V22C140 16.1652 137.682 10.5695 133.556 6.44365C129.431 2.31785 123.835 0 118 0H70C64.1652 0 58.5694 2.31785 54.4436 6.44365C50.3178 10.5695 48 16.1652 48 22V32H6C4.4087 32 2.88258 32.6321 1.75736 33.7574C0.63214 34.8826 0 36.4087 0 38C0 39.5913 0.63214 41.1174 1.75736 42.2426C2.88258 43.3679 4.4087 44 6 44H16V190C16 193.713 17.475 197.274 20.1005 199.899C22.726 202.525 26.287 204 30 204H158C161.713 204 165.274 202.525 167.899 199.899C170.525 197.274 172 193.713 172 190V44H182C183.591 44 185.117 43.3679 186.243 42.2426C187.368 41.1174 188 39.5913 188 38C188 36.4087 187.368 34.8826 186.243 33.7574C185.117 32.6321 183.591 32 182 32ZM60 22C60 19.3478 61.0536 16.8043 62.9289 14.9289C64.8043 13.0536 67.3478 12 70 12H118C120.652 12 123.196 13.0536 125.071 14.9289C126.946 16.8043 128 19.3478 128 22V32H60V22ZM160 190C160 190.53 159.789 191.039 159.414 191.414C159.039 191.789 158.53 192 158 192H30C29.4696 192 28.9609 191.789 28.5858 191.414C28.2107 191.039 28 190.53 28 190V44H160V190ZM76 86V150C76 151.591 75.3679 153.117 74.2426 154.243C73.1174 155.368 71.5913 156 70 156C68.4087 156 66.8826 155.368 65.7574 154.243C64.6321 153.117 64 151.591 64 150V86C64 84.4087 64.6321 82.8826 65.7574 81.7574C66.8826 80.6321 68.4087 80 70 80C71.5913 80 73.1174 80.6321 74.2426 81.7574C75.3679 82.8826 76 84.4087 76 86ZM124 86V150C124 151.591 123.368 153.117 122.243 154.243C121.117 155.368 119.591 156 118 156C116.409 156 114.883 155.368 113.757 154.243C112.632 153.117 112 151.591 112 150V86C112 84.4087 112.632 82.8826 113.757 81.7574C114.883 80.6321 116.409 80 118 80C119.591 80 121.117 80.6321 122.243 81.7574C123.368 82.8826 124 84.4087 124 86Z" fill="#BE123C"/>
</svg>
