<svg width="548" height="327" viewBox="0 0 548 327" fill="none" xmlns="http://www.w3.org/2000/svg">
<rect width="548" height="327" fill="#D9D9D9"/>
<path opacity="0.2" d="M333.364 103.909V187.132L306.282 160.05C305.259 159.028 303.872 158.454 302.426 158.454C300.98 158.454 299.593 159.028 298.571 160.05L281.075 177.545L247.223 143.686C246.716 143.179 246.115 142.777 245.452 142.502C244.79 142.228 244.08 142.087 243.364 142.087C242.647 142.087 241.937 142.228 241.275 142.502C240.613 142.777 240.011 143.179 239.505 143.686L202.455 180.743V103.909C202.455 102.462 203.029 101.075 204.052 100.052C205.075 99.0293 206.462 98.4546 207.909 98.4546H327.909C329.356 98.4546 330.743 99.0293 331.766 100.052C332.789 101.075 333.364 102.462 333.364 103.909Z" fill="#707070"/>
<path d="M327.909 93H207.909C205.016 93 202.241 94.1493 200.195 96.1952C198.149 98.241 197 101.016 197 103.909V202.091C197 204.984 198.149 207.759 200.195 209.805C202.241 211.851 205.016 213 207.909 213H327.909C330.802 213 333.577 211.851 335.623 209.805C337.669 207.759 338.818 204.984 338.818 202.091V103.909C338.818 101.016 337.669 98.241 335.623 96.1952C333.577 94.1493 330.802 93 327.909 93ZM327.909 103.909V173.966L310.134 156.198C309.121 155.184 307.918 154.381 306.595 153.832C305.271 153.284 303.852 153.002 302.419 153.002C300.987 153.002 299.568 153.284 298.244 153.832C296.92 154.381 295.718 155.184 294.705 156.198L281.068 169.834L251.068 139.834C249.023 137.79 246.249 136.641 243.357 136.641C240.465 136.641 237.691 137.79 235.645 139.834L207.909 167.57V103.909H327.909ZM207.909 183L243.364 147.545L297.909 202.091H207.909V183ZM327.909 202.091H313.339L288.793 177.545L302.43 163.909L327.909 189.395V202.091ZM278.818 133.909C278.818 132.291 279.298 130.709 280.197 129.364C281.096 128.018 282.374 126.969 283.869 126.35C285.364 125.731 287.009 125.569 288.596 125.884C290.183 126.2 291.641 126.979 292.785 128.124C293.93 129.268 294.709 130.726 295.025 132.313C295.34 133.9 295.178 135.545 294.559 137.04C293.94 138.535 292.891 139.813 291.546 140.712C290.2 141.611 288.618 142.091 287 142.091C284.83 142.091 282.749 141.229 281.215 139.695C279.68 138.16 278.818 136.079 278.818 133.909Z" fill="#707070"/>
<path d="M151.032 240.272V257H148.848V240.272H151.032ZM170.57 243.608C171.594 243.608 172.506 243.824 173.306 244.256C174.106 244.672 174.738 245.304 175.202 246.152C175.666 247 175.898 248.032 175.898 249.248V257H173.738V249.56C173.738 248.248 173.41 247.248 172.754 246.56C172.114 245.856 171.242 245.504 170.138 245.504C169.002 245.504 168.098 245.872 167.426 246.608C166.754 247.328 166.418 248.376 166.418 249.752V257H164.258V249.56C164.258 248.248 163.93 247.248 163.274 246.56C162.634 245.856 161.762 245.504 160.658 245.504C159.522 245.504 158.618 245.872 157.946 246.608C157.274 247.328 156.938 248.376 156.938 249.752V257H154.754V243.848H156.938V245.744C157.37 245.056 157.946 244.528 158.666 244.16C159.402 243.792 160.21 243.608 161.09 243.608C162.194 243.608 163.17 243.856 164.018 244.352C164.866 244.848 165.498 245.576 165.914 246.536C166.282 245.608 166.89 244.888 167.738 244.376C168.586 243.864 169.53 243.608 170.57 243.608ZM178.665 250.376C178.665 249.032 178.937 247.856 179.481 246.848C180.025 245.824 180.769 245.032 181.713 244.472C182.673 243.912 183.737 243.632 184.905 243.632C186.057 243.632 187.057 243.88 187.905 244.376C188.753 244.872 189.385 245.496 189.801 246.248V243.848H192.009V257H189.801V254.552C189.369 255.32 188.721 255.96 187.857 256.472C187.009 256.968 186.017 257.216 184.881 257.216C183.713 257.216 182.657 256.928 181.713 256.352C180.769 255.776 180.025 254.968 179.481 253.928C178.937 252.888 178.665 251.704 178.665 250.376ZM189.801 250.4C189.801 249.408 189.601 248.544 189.201 247.808C188.801 247.072 188.257 246.512 187.569 246.128C186.897 245.728 186.153 245.528 185.337 245.528C184.521 245.528 183.777 245.72 183.105 246.104C182.433 246.488 181.897 247.048 181.497 247.784C181.097 248.52 180.897 249.384 180.897 250.376C180.897 251.384 181.097 252.264 181.497 253.016C181.897 253.752 182.433 254.32 183.105 254.72C183.777 255.104 184.521 255.296 185.337 255.296C186.153 255.296 186.897 255.104 187.569 254.72C188.257 254.32 188.801 253.752 189.201 253.016C189.601 252.264 189.801 251.392 189.801 250.4ZM201.124 243.632C202.26 243.632 203.252 243.88 204.1 244.376C204.964 244.872 205.604 245.496 206.02 246.248V243.848H208.228V257.288C208.228 258.488 207.972 259.552 207.46 260.48C206.948 261.424 206.212 262.16 205.252 262.688C204.308 263.216 203.204 263.48 201.94 263.48C200.212 263.48 198.772 263.072 197.62 262.256C196.468 261.44 195.788 260.328 195.58 258.92H197.74C197.98 259.72 198.476 260.36 199.228 260.84C199.98 261.336 200.884 261.584 201.94 261.584C203.14 261.584 204.116 261.208 204.868 260.456C205.636 259.704 206.02 258.648 206.02 257.288V254.528C205.588 255.296 204.948 255.936 204.1 256.448C203.252 256.96 202.26 257.216 201.124 257.216C199.956 257.216 198.892 256.928 197.932 256.352C196.988 255.776 196.244 254.968 195.7 253.928C195.156 252.888 194.884 251.704 194.884 250.376C194.884 249.032 195.156 247.856 195.7 246.848C196.244 245.824 196.988 245.032 197.932 244.472C198.892 243.912 199.956 243.632 201.124 243.632ZM206.02 250.4C206.02 249.408 205.82 248.544 205.42 247.808C205.02 247.072 204.476 246.512 203.788 246.128C203.116 245.728 202.372 245.528 201.556 245.528C200.74 245.528 199.996 245.72 199.324 246.104C198.652 246.488 198.116 247.048 197.716 247.784C197.316 248.52 197.116 249.384 197.116 250.376C197.116 251.384 197.316 252.264 197.716 253.016C198.116 253.752 198.652 254.32 199.324 254.72C199.996 255.104 200.74 255.296 201.556 255.296C202.372 255.296 203.116 255.104 203.788 254.72C204.476 254.32 205.02 253.752 205.42 253.016C205.82 252.264 206.02 251.392 206.02 250.4ZM223.918 249.92C223.918 250.336 223.894 250.776 223.846 251.24H213.334C213.414 252.536 213.854 253.552 214.654 254.288C215.47 255.008 216.454 255.368 217.606 255.368C218.55 255.368 219.334 255.152 219.958 254.72C220.598 254.272 221.046 253.68 221.302 252.944H223.654C223.302 254.208 222.598 255.24 221.542 256.04C220.486 256.824 219.174 257.216 217.606 257.216C216.358 257.216 215.238 256.936 214.246 256.376C213.27 255.816 212.502 255.024 211.942 254C211.382 252.96 211.102 251.76 211.102 250.4C211.102 249.04 211.374 247.848 211.918 246.824C212.462 245.8 213.222 245.016 214.198 244.472C215.19 243.912 216.326 243.632 217.606 243.632C218.854 243.632 219.958 243.904 220.918 244.448C221.878 244.992 222.614 245.744 223.126 246.704C223.654 247.648 223.918 248.72 223.918 249.92ZM221.662 249.464C221.662 248.632 221.478 247.92 221.11 247.328C220.742 246.72 220.238 246.264 219.598 245.96C218.974 245.64 218.278 245.48 217.51 245.48C216.406 245.48 215.462 245.832 214.678 246.536C213.91 247.24 213.47 248.216 213.358 249.464H221.662ZM239.608 243.608C241.208 243.608 242.504 244.096 243.496 245.072C244.488 246.032 244.984 247.424 244.984 249.248V257H242.824V249.56C242.824 248.248 242.496 247.248 241.84 246.56C241.184 245.856 240.288 245.504 239.152 245.504C238 245.504 237.08 245.864 236.392 246.584C235.72 247.304 235.384 248.352 235.384 249.728V257H233.2V243.848H235.384V245.72C235.816 245.048 236.4 244.528 237.136 244.16C237.888 243.792 238.712 243.608 239.608 243.608ZM254.287 257.216C253.055 257.216 251.935 256.936 250.927 256.376C249.935 255.816 249.151 255.024 248.575 254C248.015 252.96 247.735 251.76 247.735 250.4C247.735 249.056 248.023 247.872 248.599 246.848C249.191 245.808 249.991 245.016 250.999 244.472C252.007 243.912 253.135 243.632 254.383 243.632C255.631 243.632 256.759 243.912 257.767 244.472C258.775 245.016 259.567 245.8 260.143 246.824C260.735 247.848 261.031 249.04 261.031 250.4C261.031 251.76 260.727 252.96 260.119 254C259.527 255.024 258.719 255.816 257.695 256.376C256.671 256.936 255.535 257.216 254.287 257.216ZM254.287 255.296C255.071 255.296 255.807 255.112 256.495 254.744C257.183 254.376 257.735 253.824 258.151 253.088C258.583 252.352 258.799 251.456 258.799 250.4C258.799 249.344 258.591 248.448 258.175 247.712C257.759 246.976 257.215 246.432 256.543 246.08C255.871 245.712 255.143 245.528 254.359 245.528C253.559 245.528 252.823 245.712 252.151 246.08C251.495 246.432 250.967 246.976 250.567 247.712C250.167 248.448 249.967 249.344 249.967 250.4C249.967 251.472 250.159 252.376 250.543 253.112C250.943 253.848 251.471 254.4 252.127 254.768C252.783 255.12 253.503 255.296 254.287 255.296ZM266.567 245.648V253.4C266.567 254.04 266.703 254.496 266.975 254.768C267.247 255.024 267.719 255.152 268.391 255.152H269.999V257H268.031C266.815 257 265.903 256.72 265.295 256.16C264.687 255.6 264.383 254.68 264.383 253.4V245.648H262.679V243.848H264.383V240.536H266.567V243.848H269.999V245.648H266.567ZM278.227 250.376C278.227 249.032 278.499 247.856 279.043 246.848C279.587 245.824 280.331 245.032 281.275 244.472C282.235 243.912 283.299 243.632 284.467 243.632C285.619 243.632 286.619 243.88 287.467 244.376C288.315 244.872 288.947 245.496 289.363 246.248V243.848H291.571V257H289.363V254.552C288.931 255.32 288.283 255.96 287.419 256.472C286.571 256.968 285.579 257.216 284.443 257.216C283.275 257.216 282.219 256.928 281.275 256.352C280.331 255.776 279.587 254.968 279.043 253.928C278.499 252.888 278.227 251.704 278.227 250.376ZM289.363 250.4C289.363 249.408 289.163 248.544 288.763 247.808C288.363 247.072 287.819 246.512 287.131 246.128C286.459 245.728 285.715 245.528 284.899 245.528C284.083 245.528 283.339 245.72 282.667 246.104C281.995 246.488 281.459 247.048 281.059 247.784C280.659 248.52 280.459 249.384 280.459 250.376C280.459 251.384 280.659 252.264 281.059 253.016C281.459 253.752 281.995 254.32 282.667 254.72C283.339 255.104 284.083 255.296 284.899 255.296C285.715 255.296 286.459 255.104 287.131 254.72C287.819 254.32 288.363 253.752 288.763 253.016C289.163 252.264 289.363 251.392 289.363 250.4ZM300.158 254.984L304.238 243.848H306.566L301.406 257H298.862L293.702 243.848H296.054L300.158 254.984ZM307.899 250.376C307.899 249.032 308.171 247.856 308.715 246.848C309.259 245.824 310.003 245.032 310.947 244.472C311.907 243.912 312.971 243.632 314.139 243.632C315.291 243.632 316.291 243.88 317.139 244.376C317.987 244.872 318.619 245.496 319.035 246.248V243.848H321.243V257H319.035V254.552C318.603 255.32 317.955 255.96 317.091 256.472C316.243 256.968 315.251 257.216 314.115 257.216C312.947 257.216 311.891 256.928 310.947 256.352C310.003 255.776 309.259 254.968 308.715 253.928C308.171 252.888 307.899 251.704 307.899 250.376ZM319.035 250.4C319.035 249.408 318.835 248.544 318.435 247.808C318.035 247.072 317.491 246.512 316.803 246.128C316.131 245.728 315.387 245.528 314.571 245.528C313.755 245.528 313.011 245.72 312.339 246.104C311.667 246.488 311.131 247.048 310.731 247.784C310.331 248.52 310.131 249.384 310.131 250.376C310.131 251.384 310.331 252.264 310.731 253.016C311.131 253.752 311.667 254.32 312.339 254.72C313.011 255.104 313.755 255.296 314.571 255.296C315.387 255.296 316.131 255.104 316.803 254.72C317.491 254.32 318.035 253.752 318.435 253.016C318.835 252.264 319.035 251.392 319.035 250.4ZM326.062 241.712C325.646 241.712 325.294 241.568 325.006 241.28C324.718 240.992 324.574 240.64 324.574 240.224C324.574 239.808 324.718 239.456 325.006 239.168C325.294 238.88 325.646 238.736 326.062 238.736C326.462 238.736 326.798 238.88 327.07 239.168C327.358 239.456 327.502 239.808 327.502 240.224C327.502 240.64 327.358 240.992 327.07 241.28C326.798 241.568 326.462 241.712 326.062 241.712ZM327.118 243.848V257H324.934V243.848H327.118ZM333.024 239.24V257H330.84V239.24H333.024ZM335.93 250.376C335.93 249.032 336.202 247.856 336.746 246.848C337.29 245.824 338.034 245.032 338.978 244.472C339.938 243.912 341.002 243.632 342.17 243.632C343.322 243.632 344.322 243.88 345.17 244.376C346.018 244.872 346.65 245.496 347.066 246.248V243.848H349.274V257H347.066V254.552C346.634 255.32 345.986 255.96 345.122 256.472C344.274 256.968 343.282 257.216 342.146 257.216C340.978 257.216 339.922 256.928 338.978 256.352C338.034 255.776 337.29 254.968 336.746 253.928C336.202 252.888 335.93 251.704 335.93 250.376ZM347.066 250.4C347.066 249.408 346.866 248.544 346.466 247.808C346.066 247.072 345.522 246.512 344.834 246.128C344.162 245.728 343.418 245.528 342.602 245.528C341.786 245.528 341.042 245.72 340.37 246.104C339.698 246.488 339.162 247.048 338.762 247.784C338.362 248.52 338.162 249.384 338.162 250.376C338.162 251.384 338.362 252.264 338.762 253.016C339.162 253.752 339.698 254.32 340.37 254.72C341.042 255.104 341.786 255.296 342.602 255.296C343.418 255.296 344.162 255.104 344.834 254.72C345.522 254.32 346.066 253.752 346.466 253.016C346.866 252.264 347.066 251.392 347.066 250.4ZM355.149 246.296C355.597 245.512 356.253 244.872 357.117 244.376C357.981 243.88 358.965 243.632 360.069 243.632C361.253 243.632 362.317 243.912 363.261 244.472C364.205 245.032 364.949 245.824 365.493 246.848C366.037 247.856 366.309 249.032 366.309 250.376C366.309 251.704 366.037 252.888 365.493 253.928C364.949 254.968 364.197 255.776 363.237 256.352C362.293 256.928 361.237 257.216 360.069 257.216C358.933 257.216 357.933 256.968 357.069 256.472C356.221 255.976 355.581 255.344 355.149 254.576V257H352.965V239.24H355.149V246.296ZM364.077 250.376C364.077 249.384 363.877 248.52 363.477 247.784C363.077 247.048 362.533 246.488 361.845 246.104C361.173 245.72 360.429 245.528 359.613 245.528C358.813 245.528 358.069 245.728 357.381 246.128C356.709 246.512 356.165 247.08 355.749 247.832C355.349 248.568 355.149 249.424 355.149 250.4C355.149 251.392 355.349 252.264 355.749 253.016C356.165 253.752 356.709 254.32 357.381 254.72C358.069 255.104 358.813 255.296 359.613 255.296C360.429 255.296 361.173 255.104 361.845 254.72C362.533 254.32 363.077 253.752 363.477 253.016C363.877 252.264 364.077 251.384 364.077 250.376ZM371.368 239.24V257H369.184V239.24H371.368ZM387.09 249.92C387.09 250.336 387.066 250.776 387.018 251.24H376.506C376.586 252.536 377.026 253.552 377.826 254.288C378.642 255.008 379.626 255.368 380.778 255.368C381.722 255.368 382.506 255.152 383.13 254.72C383.77 254.272 384.218 253.68 384.474 252.944H386.826C386.474 254.208 385.77 255.24 384.714 256.04C383.658 256.824 382.346 257.216 380.778 257.216C379.53 257.216 378.41 256.936 377.418 256.376C376.442 255.816 375.674 255.024 375.114 254C374.554 252.96 374.274 251.76 374.274 250.4C374.274 249.04 374.546 247.848 375.09 246.824C375.634 245.8 376.394 245.016 377.37 244.472C378.362 243.912 379.498 243.632 380.778 243.632C382.026 243.632 383.13 243.904 384.09 244.448C385.05 244.992 385.786 245.744 386.298 246.704C386.826 247.648 387.09 248.72 387.09 249.92ZM384.834 249.464C384.834 248.632 384.65 247.92 384.282 247.328C383.914 246.72 383.41 246.264 382.77 245.96C382.146 245.64 381.45 245.48 380.682 245.48C379.578 245.48 378.634 245.832 377.85 246.536C377.082 247.24 376.642 248.216 376.53 249.464H384.834Z" fill="#545454"/>
</svg>
